<svg width="50" height="50" viewBox="0 0 50 50" fill="none" xmlns="http://www.w3.org/2000/svg">
<rect width="50" height="50" rx="3" fill="#2589BD"/>
<rect x="11" y="13" width="26" height="25" rx="12.5" fill="#84BBD8"/>
<path d="M24.5 41C22.3817 41 20.3796 40.5931 18.4937 39.7794C16.6079 38.9656 14.961 37.8548 13.5531 36.4469C12.1452 35.039 11.0344 33.3921 10.2206 31.5062C9.40687 29.6204 9 27.6183 9 25.5C9 23.3558 9.40687 21.3473 10.2206 19.4744C11.0344 17.6015 12.1452 15.961 13.5531 14.5531C14.961 13.1452 16.6079 12.0344 18.4937 11.2206C20.3796 10.4069 22.3817 10 24.5 10C26.6442 10 28.6527 10.4069 30.5256 11.2206C32.3985 12.0344 34.039 13.1452 35.4469 14.5531C36.8548 15.961 37.9656 17.6015 38.7794 19.4744C39.5931 21.3473 40 23.3558 40 25.5C40 27.6183 39.5931 29.6204 38.7794 31.5062C37.9656 33.3921 36.8548 35.039 35.4469 36.4469C34.039 37.8548 32.3985 38.9656 30.5256 39.7794C28.6527 40.5931 26.6442 41 24.5 41ZM24.5 37.8225C25.1717 36.8925 25.7529 35.9238 26.2437 34.9163C26.7346 33.9088 27.135 32.8367 27.445 31.7H21.555C21.865 32.8367 22.2654 33.9088 22.7562 34.9163C23.2471 35.9238 23.8283 36.8925 24.5 37.8225ZM20.47 37.2025C20.005 36.35 19.5981 35.4652 19.2494 34.5481C18.9006 33.631 18.61 32.6817 18.3775 31.7H13.805C14.5542 32.9917 15.4906 34.1154 16.6144 35.0713C17.7381 36.0271 19.0233 36.7375 20.47 37.2025ZM28.53 37.2025C29.9767 36.7375 31.2619 36.0271 32.3856 35.0713C33.5094 34.1154 34.4458 32.9917 35.195 31.7H30.6225C30.39 32.6817 30.0994 33.631 29.7506 34.5481C29.4019 35.4652 28.995 36.35 28.53 37.2025ZM12.4875 28.6H17.7575C17.68 28.0833 17.6219 27.5731 17.5831 27.0694C17.5444 26.5656 17.525 26.0425 17.525 25.5C17.525 24.9575 17.5444 24.4344 17.5831 23.9306C17.6219 23.4269 17.68 22.9167 17.7575 22.4H12.4875C12.3583 22.9167 12.2615 23.4269 12.1969 23.9306C12.1323 24.4344 12.1 24.9575 12.1 25.5C12.1 26.0425 12.1323 26.5656 12.1969 27.0694C12.2615 27.5731 12.3583 28.0833 12.4875 28.6ZM20.8575 28.6H28.1425C28.22 28.0833 28.2781 27.5731 28.3169 27.0694C28.3556 26.5656 28.375 26.0425 28.375 25.5C28.375 24.9575 28.3556 24.4344 28.3169 23.9306C28.2781 23.4269 28.22 22.9167 28.1425 22.4H20.8575C20.78 22.9167 20.7219 23.4269 20.6831 23.9306C20.6444 24.4344 20.625 24.9575 20.625 25.5C20.625 26.0425 20.6444 26.5656 20.6831 27.0694C20.7219 27.5731 20.78 28.0833 20.8575 28.6ZM31.2425 28.6H36.5125C36.6417 28.0833 36.7385 27.5731 36.8031 27.0694C36.8677 26.5656 36.9 26.0425 36.9 25.5C36.9 24.9575 36.8677 24.4344 36.8031 23.9306C36.7385 23.4269 36.6417 22.9167 36.5125 22.4H31.2425C31.32 22.9167 31.3781 23.4269 31.4169 23.9306C31.4556 24.4344 31.475 24.9575 31.475 25.5C31.475 26.0425 31.4556 26.5656 31.4169 27.0694C31.3781 27.5731 31.32 28.0833 31.2425 28.6ZM30.6225 19.3H35.195C34.4458 18.0083 33.5094 16.8846 32.3856 15.9287C31.2619 14.9729 29.9767 14.2625 28.53 13.7975C28.995 14.65 29.4019 15.5348 29.7506 16.4519C30.0994 17.369 30.39 18.3183 30.6225 19.3ZM21.555 19.3H27.445C27.135 18.1633 26.7346 17.0912 26.2437 16.0837C25.7529 15.0762 25.1717 14.1075 24.5 13.1775C23.8283 14.1075 23.2471 15.0762 22.7562 16.0837C22.2654 17.0912 21.865 18.1633 21.555 19.3ZM13.805 19.3H18.3775C18.61 18.3183 18.9006 17.369 19.2494 16.4519C19.5981 15.5348 20.005 14.65 20.47 13.7975C19.0233 14.2625 17.7381 14.9729 16.6144 15.9287C15.4906 16.8846 14.5542 18.0083 13.805 19.3Z" fill="#292F36"/>
</svg>
